#!OML:ASF E:/inclinewalkrobotboard/Project1/Captureday1/Session1/subject1.ASF
:FULLY-SPECIFIED
:DEGREES
101
root 0 0 0 1.9477068713029126 -10.931998038662943 0.9521209286393412
lowerback -0.36001734393151463 -1.7278385299831927 -2.7901192332575135
upperback -0.49668079242120544 -2.270267800249205 1.700852156571076
thorax -0.11500831695584735 -1.1208068622180987 3.2684915494398075
lowerneck -25.09783588874576 -1.7178354693208544 -8.022131799668893
upperneck 27.491626955858557 0.19340913750056343 2.316315319967766
head 13.396392376842213 -0.5683276300709394 2.3637359495398638
rclavicle -2.7732593530176558E-15 7.18415874095854E-16
rhumerus -33.46147485244914 -4.972570141597978 -79.55341702781014
rradius 29.497343374008818
rwrist 20.349612440539957
rhand -17.378031565734144 8.773814630834256
rfingers 7.125019999999938
rthumb 8.86758051572183 -21.02164154963363
lclavicle -1.4309645260386845E-15 6.038583491800638E-16
lhumerus -20.719949037322383 -6.153993092804975 91.31694133452069
lradius 65.48159425763176
lwrist 2.396074507765413
lhand -28.757592647119175 21.25092315975763
lfingers 7.125020000000023
lthumb -2.129613292829985 51.26472848170378
rfemur -31.15263165232603 0.7090780855578052 17.73320186492261
rtibia 51.78346260169689
rfoot -5.4903799420772526 -9.364687081281618
rtoes -0.2208031624599469
lfemur 5.132036664489822 -3.1297256084555234 -30.647544091848395
ltibia 20.442300013888364
lfoot -20.290143128692936 -0.6540319503180223
ltoes 2.1062926157403368
102
root 0 0 0 2.0102043175315942 -10.991801500820639 1.002604929034225
lowerback -0.43360533933985557 -1.7849006340891407 -2.81647052704747
upperback -0.4444226576329394 -2.345939081462694 1.7105900989685314
thorax -0.013726572027453976 -1.1624595315089867 3.2915173612526605
lowerneck -25.534485375244465 -1.7645059293336804 -8.073371340801108
upperneck 27.045190694778686 0.14701007122715082 2.395634517169806
head 13.311244102924633 -0.560109579640698 2.385613022372205
rclavicle 1.3323209956576188E-15 -4.0195506876004213E-16
rhumerus -33.78869781727821 -4.303595206260819 -78.78956781576532
rradius 28.96568453542553
rwrist 20.429437632089275
rhand -17.490547311645198 8.86894350077617
rfingers 7.125019999999936
rthumb 8.758265506390545 -20.9129045567584
lclavicle 1.230142987173127E-15 4.768430924236004E-16
lhumerus -20.79697280132985 -7.906654521223103 91.31953091182903
lradius 66.30620910450122
lwrist 2.922555012209053
lhand -28.682394070964477 21.93903234494587
lfingers 7.125020000000023
lthumb -2.062672703036469 51.97744433773099
rfemur -32.87317392126948 3.3414759689394726 17.11061801561877
rtibia 33.45967437791863
rfoot -6.244949384406064 -12.236426711538822
rtoes -3.3039575588075794
lfemur 11.645555360101316 -3.0267326115664863 -31.386604111074156
ltibia 19.572275147744353
lfoot -19.746011475307178 -2.528459252809708
ltoes -2.7876350410310913
103
root 0 0 0 2.0183748099623213 -10.987953450634333 1.0406073503689228
lowerback -0.41700665598540954 -1.7962835673048614 -2.8158477712249432
upperback -0.4452283958529364 -2.362454206343802 1.7628278602252974
thorax -0.019552381941075447 -1.1711264183020103 3.3449422373290867
lowerneck -26.010896546076193 -1.816629251644332 -8.026100596189526
upperneck 26.288214779532062 0.09515600537204372 2.4628977194627217
head 13.129873170547473 -0.5555344257620335 2.387594804135023
rclavicle 3.4822919908577183E-15 -1.2603811081045147E-15
rhumerus -33.92645908078384 -3.5841333772417507 -78.30222926869713
rradius 28.64937008712356
rwrist 20.400210804246946
rhand -17.627079061076095 8.9657809305339
rfingers 7.125019999999935
rthumb 8.626307166089076 -20.817641166818273
lclavicle 2.5476048022208578E-15 4.492673831850737E-16
lhumerus -20.620348674415766 -8.969332033070145 91.21470006619707
lradius 66.84094304595689
lwrist 3.280369002754648
lhand -28.658936134867414 22.49631123173122
lfingers 7.125020000000021
lthumb -2.0439633662616057 52.548483936551605
rfemur -33.10580052827821 4.713316765135013 17.724828531132264
rtibia 24.696501162206353
rfoot -7.106266660039739 -13.356077329332422
rtoes -3.9648550696169638
lfemur 18.25736626503879 -3.3935982755157363 -31.06787128789024
ltibia 20.292972569052917
lfoot -15.80157257550731 -5.34010778654446
ltoes -8.011280627890212
104
root 0 0 0 1.9942250589141595 -10.948514916319917 1.0776894429260673
lowerback -0.3323473759659705 -1.785885468467567 -2.790136075337432
upperback -0.47441061685235564 -2.351311570152288 1.8614478081064698
thorax -0.09346207660722616 -1.1641780751950193 3.433132068864911
lowerneck -26.63997120927435 -1.8705133635871936 -7.892657007874698
upperneck 25.130552429171836 0.052397651784547694 2.515434739340445
head 12.839402414503411 -0.5429965911569895 2.3703619396631783
rclavicle 3.878545126862183E-15 -1.7857947295503806E-15
rhumerus -34.01168173444148 -2.8870931286886155 -77.9291268290746
rradius 28.432724569983442
rwrist 20.37076385181681
rhand -17.75623665220707 9.025346881724785
rfingers 7.125019999999936
rthumb 8.501689438893266 -20.766679505771933
lclavicle 2.8999603753051584E-15 4.1998185661497353E-16
lhumerus -20.36112829911194 -9.827679276142064 91.05351758210807
lradius 67.26211162583593
lwrist 3.592742466605755
lhand -28.63353378103821 22.942946888079913
lfingers 7.125020000000018
lthumb -2.022177363518038 53.00539711751423
rfemur -33.731298545215026 5.34932116348573 18.311630103770813
rtibia 20.542649494965886
rfoot -7.282811222510582 -13.22567032983754
rtoes -3.7847119369406377
lfemur 22.098922949706363 -3.7051164982687745 -29.181792771751553
ltibia 25.31970671144372
lfoot -9.966335340027994 -9.202555093961088
ltoes -14.066261256312607
